<svg width="20" height="20" viewBox="0 0 20 20" fill="none" xmlns="http://www.w3.org/2000/svg">
<path d="M9.48 1.3628C9.52229 1.2555 9.59432 1.1637 9.68692 1.0991C9.77951 1.0345 9.8885 1 10 1C10.1115 1 10.2205 1.0345 10.3131 1.0991C10.4057 1.1637 10.4777 1.2555 10.52 1.3628L12.645 6.67856C12.6848 6.77803 12.7502 6.86415 12.834 6.92746C12.9178 6.99077 13.0167 7.02881 13.12 7.03738L18.638 7.49709C19.137 7.53869 19.339 8.18665 18.959 8.52467L14.755 12.271C14.6765 12.3409 14.6179 12.4319 14.5858 12.5341C14.5537 12.6363 14.5493 12.7457 14.573 12.8503L15.858 18.451C15.8838 18.5634 15.8771 18.6812 15.8385 18.7896C15.8 18.8979 15.7315 18.992 15.6416 19.0599C15.5517 19.1278 15.4445 19.1664 15.3335 19.171C15.2225 19.1756 15.1127 19.1458 15.018 19.0855L10.293 16.0849C10.2047 16.0289 10.1034 15.9993 10 15.9993C9.89663 15.9993 9.79526 16.0289 9.707 16.0849L4.982 19.0865C4.88726 19.1468 4.77745 19.1766 4.66646 19.172C4.55546 19.1675 4.44825 19.1288 4.35837 19.0609C4.26848 18.9931 4.19996 18.899 4.16145 18.7906C4.12294 18.6823 4.11617 18.5644 4.142 18.4521L5.427 12.8503C5.45083 12.7457 5.44645 12.6362 5.41434 12.534C5.38223 12.4318 5.32363 12.3408 5.245 12.271L1.041 8.52467C0.956812 8.44939 0.895908 8.34989 0.865948 8.23869C0.835987 8.1275 0.838306 8.00958 0.872614 7.89975C0.906922 7.78992 0.971687 7.6931 1.05876 7.62145C1.14584 7.54981 1.25134 7.50654 1.362 7.49709L6.88 7.03738C6.98325 7.02881 7.08222 6.99077 7.16603 6.92746C7.24983 6.86415 7.31522 6.77803 7.355 6.67856L9.48 1.3628Z" stroke="#111827" stroke-width="1.5" stroke-linecap="round" stroke-linejoin="round"/>
</svg>
